<?xml version="1.0" encoding="utf-8" standalone="no"?>
<svg xmlns:xlink="http://www.w3.org/1999/xlink" width="1281.013338pt" height="579.620219pt" viewBox="0 0 1281.013338 579.620219" xmlns="http://www.w3.org/2000/svg" version="1.1">
 <metadata>
  <rdf:RDF xmlns:dc="http://purl.org/dc/elements/1.1/" xmlns:cc="http://creativecommons.org/ns#" xmlns:rdf="http://www.w3.org/1999/02/22-rdf-syntax-ns#">
   <cc:Work>
    <dc:type rdf:resource="http://purl.org/dc/dcmitype/StillImage"/>
    <dc:date>2026-10-02T19:01:45.058561</dc:date>
    <dc:format>image/svg+xml</dc:format>
    <dc:creator>
     <cc:Agent>
      <dc:title>Matplotlib v3.10.8, https://matplotlib.org/</dc:title>
     </cc:Agent>
    </dc:creator>
   </cc:Work>
  </rdf:RDF>
 </metadata>
 <defs>
  <style type="text/css">*{stroke-linejoin: round; stroke-linecap: butt}</style>
 </defs>
 <g id="figure_1">
  <g id="patch_1">
   <path d="M 0 579.620219 
L 1281.013338 579.620219 
L 1281.013338 0 
L 0 0 
z
" style="fill: #fcfcfb"/>
  </g>
  <g id="axes_1">
   <g id="patch_2">
    <path d="M 126.238605 142.447183 
Q 80.195768 185.592017 126.236897 228.736833 
" clip-path="url(#p408e5293d5)" style="fill: none; stroke: #2a78d6; stroke-width: 1.2; stroke-linecap: round"/>
    <path d="M 121.523641 143.850434 
L 126.238605 142.447183 
L 124.532228 147.061105 
z
" clip-path="url(#p408e5293d5)" style="fill: #2a78d6; stroke: #2a78d6; stroke-width: 1.2; stroke-linecap: round"/>
    <path d="M 124.530604 224.12288 
L 126.236897 228.736833 
L 121.521958 227.333495 
z
" clip-path="url(#p408e5293d5)" style="fill: #2a78d6; stroke: #2a78d6; stroke-width: 1.2; stroke-linecap: round"/>
   </g>
   <g id="patch_3">
    <path d="M 126.226504 142.434129 
Q 30.240105 231.010925 126.225453 319.587717 
" clip-path="url(#p408e5293d5)" style="fill: none; stroke: #2a78d6; stroke-width: 1.2; stroke-linecap: round"/>
    <path d="M 121.500952 143.801302 
L 126.226504 142.434129 
L 124.484911 147.034874 
z
" clip-path="url(#p408e5293d5)" style="fill: #2a78d6; stroke: #2a78d6; stroke-width: 1.2; stroke-linecap: round"/>
    <path d="M 124.483885 314.986962 
L 126.225453 319.587717 
L 121.499909 318.220518 
z
" clip-path="url(#p408e5293d5)" style="fill: #2a78d6; stroke: #2a78d6; stroke-width: 1.2; stroke-linecap: round"/>
   </g>
   <g id="patch_4">
    <path d="M 204.015743 171.384522 
Q 274.983342 259.914013 344.272632 346.349875 
" clip-path="url(#p408e5293d5)" style="fill: none; stroke: #0b0b0b; stroke-width: 2.4; stroke-linecap: round"/>
    <path d="M 342.766431 339.35478 
L 344.272632 346.349875 
L 337.772835 343.357779 
z
" clip-path="url(#p408e5293d5)" style="fill: #0b0b0b; stroke: #0b0b0b; stroke-width: 2.4; stroke-linecap: round"/>
   </g>
   <g id="patch_5">
    <path d="M 399.404694 351.521851 
Q 466.956559 284.688224 533.554684 218.798195 
" clip-path="url(#p408e5293d5)" style="fill: none; stroke-dasharray: 6,3.6; stroke-dashoffset: 0; stroke: #a9a7a0; stroke-width: 1.2; stroke-linecap: round"/>
    <path d="M 526.754462 221.024625 
L 533.554684 218.798195 
L 531.255695 225.57423 
z
" clip-path="url(#p408e5293d5)" style="fill: #a9a7a0; stroke-dasharray: 6,3.6; stroke-dashoffset: 0; stroke: #a9a7a0; stroke-width: 1.2; stroke-linecap: round"/>
   </g>
   <g id="patch_6">
    <path d="M 218.66801 145.293733 
Q 370.970912 164.94811 521.943207 184.430775 
" clip-path="url(#p408e5293d5)" style="fill: none; stroke-dasharray: 6,3.6; stroke-dashoffset: 0; stroke: #a9a7a0; stroke-width: 1.2; stroke-linecap: round"/>
    <path d="M 516.005398 180.437978 
L 521.943207 184.430775 
L 515.186284 186.785344 
z
" clip-path="url(#p408e5293d5)" style="fill: #a9a7a0; stroke-dasharray: 6,3.6; stroke-dashoffset: 0; stroke: #a9a7a0; stroke-width: 1.2; stroke-linecap: round"/>
   </g>
   <g id="patch_7">
    <path d="M 562.943565 265.333917 
Q 562.943565 247.526947 562.943565 232.403258 
" clip-path="url(#p408e5293d5)" style="fill: none; stroke: #0b0b0b; stroke-width: 2.4; stroke-linecap: round"/>
    <path d="M 559.743565 238.803258 
L 562.943565 232.403258 
L 566.143565 238.803258 
z
" clip-path="url(#p408e5293d5)" style="fill: #0b0b0b; stroke: #0b0b0b; stroke-width: 2.4; stroke-linecap: round"/>
   </g>
   <g id="patch_8">
    <path d="M 410.073138 388.064329 
Q 466.954019 400.298264 521.211607 411.967981 
" clip-path="url(#p408e5293d5)" style="fill: none; stroke: #0b0b0b; stroke-width: 2.4; stroke-linecap: round"/>
    <path d="M 515.62756 407.493787 
L 521.211607 411.967981 
L 514.281823 413.750702 
z
" clip-path="url(#p408e5293d5)" style="fill: #0b0b0b; stroke: #0b0b0b; stroke-width: 2.4; stroke-linecap: round"/>
   </g>
   <g id="patch_9">
    <path d="M 211.28622 163.786616 
Q 370.970346 280.559101 529.571502 396.539641 
" clip-path="url(#p408e5293d5)" style="fill: none; stroke-dasharray: 6,3.6; stroke-dashoffset: 0; stroke: #a9a7a0; stroke-width: 1.2; stroke-linecap: round"/>
    <path d="M 526.294334 390.17881 
L 529.571502 396.539641 
L 522.516536 395.344876 
z
" clip-path="url(#p408e5293d5)" style="fill: #a9a7a0; stroke-dasharray: 6,3.6; stroke-dashoffset: 0; stroke: #a9a7a0; stroke-width: 1.2; stroke-linecap: round"/>
   </g>
   <g id="patch_10">
    <path d="M 214.848227 248.746559 
Q 370.968211 325.976587 524.683102 402.016856 
" clip-path="url(#p408e5293d5)" style="fill: none; stroke: #0b0b0b; stroke-width: 2.4; stroke-linecap: round"/>
    <path d="M 520.365493 396.310871 
L 524.683102 402.016856 
L 517.527749 402.047352 
z
" clip-path="url(#p408e5293d5)" style="fill: #0b0b0b; stroke: #0b0b0b; stroke-width: 2.4; stroke-linecap: round"/>
   </g>
   <g id="patch_11">
    <path d="M 562.943565 345.331558 
Q 562.943565 363.138528 562.943565 378.262217 
" clip-path="url(#p408e5293d5)" style="fill: none; stroke: #0b0b0b; stroke-width: 2.4; stroke-linecap: round"/>
    <path d="M 566.143565 371.862217 
L 562.943565 378.262217 
L 559.743565 371.862217 
z
" clip-path="url(#p408e5293d5)" style="fill: #0b0b0b; stroke: #0b0b0b; stroke-width: 2.4; stroke-linecap: round"/>
   </g>
   <g id="patch_12">
    <path d="M 133.982293 159.993258 
L 224.011202 159.993258 
Q 231.954929 159.993258 231.954929 155.038503 
L 231.954929 125.309973 
Q 231.954929 120.355218 224.011202 120.355218 
L 133.982293 120.355218 
Q 126.038565 120.355218 126.038565 125.309973 
L 126.038565 155.038503 
Q 126.038565 159.993258 133.982293 159.993258 
z
" clip-path="url(#p408e5293d5)" style="fill: #fcfcfb; stroke: #52514e; stroke-width: 1.3; stroke-linejoin: miter"/>
   </g>
   <g id="patch_13">
    <path d="M 133.982293 250.830433 
L 224.011202 250.830433 
Q 231.954929 250.830433 231.954929 245.875678 
L 231.954929 216.147148 
Q 231.954929 211.192393 224.011202 211.192393 
L 133.982293 211.192393 
Q 126.038565 211.192393 126.038565 216.147148 
L 126.038565 245.875678 
Q 126.038565 250.830433 133.982293 250.830433 
z
" clip-path="url(#p408e5293d5)" style="fill: #fcfcfb; stroke: #52514e; stroke-width: 1.3; stroke-linejoin: miter"/>
   </g>
   <g id="patch_14">
    <path d="M 133.982293 341.667608 
L 224.011202 341.667608 
Q 231.954929 341.667608 231.954929 336.712853 
L 231.954929 306.984323 
Q 231.954929 302.029568 224.011202 302.029568 
L 133.982293 302.029568 
Q 126.038565 302.029568 126.038565 306.984323 
L 126.038565 336.712853 
Q 126.038565 341.667608 133.982293 341.667608 
z
" clip-path="url(#p408e5293d5)" style="fill: #fcfcfb; stroke: #52514e; stroke-width: 1.3; stroke-linejoin: miter"/>
   </g>
   <g id="patch_15">
    <path d="M 133.982293 432.504783 
L 224.011202 432.504783 
Q 231.954929 432.504783 231.954929 427.550028 
L 231.954929 397.821498 
Q 231.954929 392.866743 224.011202 392.866743 
L 133.982293 392.866743 
Q 126.038565 392.866743 126.038565 397.821498 
L 126.038565 427.550028 
Q 126.038565 432.504783 133.982293 432.504783 
z
" clip-path="url(#p408e5293d5)" style="fill: #fcfcfb; stroke: #52514e; stroke-width: 1.3; stroke-linejoin: miter"/>
   </g>
   <g id="patch_16">
    <path d="M 133.982293 523.341958 
L 224.011202 523.341958 
Q 231.954929 523.341958 231.954929 518.387203 
L 231.954929 488.658673 
Q 231.954929 483.703918 224.011202 483.703918 
L 133.982293 483.703918 
Q 126.038565 483.703918 126.038565 488.658673 
L 126.038565 518.387203 
Q 126.038565 523.341958 133.982293 523.341958 
z
" clip-path="url(#p408e5293d5)" style="fill: #fcfcfb; stroke: #52514e; stroke-width: 1.3; stroke-linejoin: miter"/>
   </g>
   <g id="patch_17">
    <path d="M 325.955702 399.473083 
L 415.984611 399.473083 
Q 423.928338 399.473083 423.928338 394.518328 
L 423.928338 364.789798 
Q 423.928338 359.835043 415.984611 359.835043 
L 325.955702 359.835043 
Q 318.011974 359.835043 318.011974 364.789798 
L 318.011974 394.518328 
Q 318.011974 399.473083 325.955702 399.473083 
z
" clip-path="url(#p408e5293d5)" style="fill: #fcfcfb; stroke: #0b0b0b; stroke-width: 2; stroke-linejoin: miter"/>
   </g>
   <g id="patch_18">
    <path d="M 517.929111 325.151758 
L 607.95802 325.151758 
Q 615.901747 325.151758 615.901747 320.197003 
L 615.901747 290.468473 
Q 615.901747 285.513718 607.95802 285.513718 
L 517.929111 285.513718 
Q 509.985384 285.513718 509.985384 290.468473 
L 509.985384 320.197003 
Q 509.985384 325.151758 517.929111 325.151758 
z
" clip-path="url(#p408e5293d5)" style="fill: #fcfcfb; stroke: #52514e; stroke-width: 1.3; stroke-linejoin: miter"/>
   </g>
   <g id="patch_19">
    <path d="M 517.929111 209.540808 
L 607.95802 209.540808 
Q 615.901747 209.540808 615.901747 204.586053 
L 615.901747 174.857523 
Q 615.901747 169.902768 607.95802 169.902768 
L 517.929111 169.902768 
Q 509.985384 169.902768 509.985384 174.857523 
L 509.985384 204.586053 
Q 509.985384 209.540808 517.929111 209.540808 
z
" clip-path="url(#p408e5293d5)" style="fill: #fcfcfb; stroke: #52514e; stroke-width: 1.3; stroke-linejoin: miter"/>
   </g>
   <g id="patch_20">
    <path d="M 517.929111 440.762708 
L 607.95802 440.762708 
Q 615.901747 440.762708 615.901747 435.807953 
L 615.901747 406.079423 
Q 615.901747 401.124668 607.95802 401.124668 
L 517.929111 401.124668 
Q 509.985384 401.124668 509.985384 406.079423 
L 509.985384 435.807953 
Q 509.985384 440.762708 517.929111 440.762708 
z
" clip-path="url(#p408e5293d5)" style="fill: #fcfcfb; stroke: #52514e; stroke-width: 1.3; stroke-linejoin: miter"/>
   </g>
   <g id="text_1">
    <g id="patch_21">
     <path d="M 46.709625 190.848684 
L 83.881031 190.848684 
L 83.881031 180.336966 
L 46.709625 180.336966 
z
" style="fill: #fcfcfb"/>
    </g>
    <text style="font-size: 9px; font-family: 'Microsoft JhengHei', 'Microsoft YaHei', 'DejaVu Sans', 'Bitstream Vera Sans', 'Computer Modern Sans Serif', 'Lucida Grande', 'Verdana', 'Geneva', 'Lucid', 'Arial', 'Helvetica', 'Avant Garde', sans-serif; text-anchor: end; fill: #2a78d6" x="83.341031" y="188.071341" transform="rotate(-0 83.341031 188.071341)">r = -0.84</text>
   </g>
   <g id="text_2">
    <g id="patch_22">
     <path d="M 6.66 236.267272 
L 43.831406 236.267272 
L 43.831406 225.755553 
L 6.66 225.755553 
z
" style="fill: #fcfcfb"/>
    </g>
    <text style="font-size: 9px; font-family: 'Microsoft JhengHei', 'Microsoft YaHei', 'DejaVu Sans', 'Bitstream Vera Sans', 'Computer Modern Sans Serif', 'Lucida Grande', 'Verdana', 'Geneva', 'Lucid', 'Arial', 'Helvetica', 'Avant Garde', sans-serif; text-anchor: end; fill: #2a78d6" x="43.291406" y="233.489928" transform="rotate(-0 43.291406 233.489928)">r = -0.63</text>
   </g>
   <g id="text_3">
    <text style="font-size: 9px; font-family: 'Microsoft JhengHei', 'Microsoft YaHei', 'DejaVu Sans', 'Bitstream Vera Sans', 'Computer Modern Sans Serif', 'Lucida Grande', 'Verdana', 'Geneva', 'Lucid', 'Arial', 'Helvetica', 'Avant Garde', sans-serif; text-anchor: middle; fill: #52514e" x="370.970156" y="540.6836" transform="rotate(-0 370.970156 540.6836)">另有 7 條控制路徑不顯著、未畫出（見 path_coefficients.csv）</text>
   </g>
   <g id="text_4">
    <text style="font-size: 11px; font-family: 'Microsoft JhengHei', 'Microsoft YaHei', 'DejaVu Sans', 'Bitstream Vera Sans', 'Computer Modern Sans Serif', 'Lucida Grande', 'Verdana', 'Geneva', 'Lucid', 'Arial', 'Helvetica', 'Avant Garde', sans-serif; fill: #0b0b0b" transform="translate(145.520376 29.710469)">模型 A：CO₂ → 自覺疲勞 → Stroop（控制溫濕度、睡眠、第幾次施測）</text>
    <text style="font-size: 11px; font-family: 'Microsoft JhengHei', 'Microsoft YaHei', 'DejaVu Sans', 'Bitstream Vera Sans', 'Computer Modern Sans Serif', 'Lucida Grande', 'Verdana', 'Geneva', 'Lucid', 'Arial', 'Helvetica', 'Avant Garde', sans-serif; fill: #0b0b0b" transform="translate(170.401861 43.337063)">n = 65 人次、11 人；Fisher's C = 17.8（df = 10，p = 0.06）</text>
   </g>
   <g id="text_5">
    <text style="font-size: 10.5px; font-family: 'Microsoft JhengHei', 'Microsoft YaHei', 'DejaVu Sans', 'Bitstream Vera Sans', 'Computer Modern Sans Serif', 'Lucida Grande', 'Verdana', 'Geneva', 'Lucid', 'Arial', 'Helvetica', 'Avant Garde', sans-serif; text-anchor: middle; fill: #0b0b0b" x="178.996747" y="143.242206" transform="rotate(-0 178.996747 143.242206)">CO₂（每100 ppm）</text>
   </g>
   <g id="text_6">
    <text style="font-size: 10.5px; font-family: 'Microsoft JhengHei', 'Microsoft YaHei', 'DejaVu Sans', 'Bitstream Vera Sans', 'Computer Modern Sans Serif', 'Lucida Grande', 'Verdana', 'Geneva', 'Lucid', 'Arial', 'Helvetica', 'Avant Garde', sans-serif; text-anchor: middle; fill: #0b0b0b" x="178.996747" y="233.903014" transform="rotate(-0 178.996747 233.903014)">溫度 (°C)</text>
   </g>
   <g id="text_7">
    <text style="font-size: 10.5px; font-family: 'Microsoft JhengHei', 'Microsoft YaHei', 'DejaVu Sans', 'Bitstream Vera Sans', 'Computer Modern Sans Serif', 'Lucida Grande', 'Verdana', 'Geneva', 'Lucid', 'Arial', 'Helvetica', 'Avant Garde', sans-serif; text-anchor: middle; fill: #0b0b0b" x="178.996747" y="324.740189" transform="rotate(-0 178.996747 324.740189)">濕度 (%)</text>
   </g>
   <g id="text_8">
    <text style="font-size: 10.5px; font-family: 'Microsoft JhengHei', 'Microsoft YaHei', 'DejaVu Sans', 'Bitstream Vera Sans', 'Computer Modern Sans Serif', 'Lucida Grande', 'Verdana', 'Geneva', 'Lucid', 'Arial', 'Helvetica', 'Avant Garde', sans-serif; text-anchor: middle; fill: #0b0b0b" x="178.996747" y="415.577364" transform="rotate(-0 178.996747 415.577364)">睡眠時數</text>
   </g>
   <g id="text_9">
    <text style="font-size: 10.5px; font-family: 'Microsoft JhengHei', 'Microsoft YaHei', 'DejaVu Sans', 'Bitstream Vera Sans', 'Computer Modern Sans Serif', 'Lucida Grande', 'Verdana', 'Geneva', 'Lucid', 'Arial', 'Helvetica', 'Avant Garde', sans-serif; text-anchor: middle; fill: #0b0b0b" x="178.996747" y="506.414539" transform="rotate(-0 178.996747 506.414539)">睡眠品質</text>
   </g>
   <g id="text_10">
    <text style="font-weight: 700; font-size: 10.5px; font-family: 'Microsoft JhengHei', 'Microsoft YaHei', 'DejaVu Sans', 'Bitstream Vera Sans', 'Computer Modern Sans Serif', 'Lucida Grande', 'Verdana', 'Geneva', 'Lucid', 'Arial', 'Helvetica', 'Avant Garde', sans-serif; text-anchor: middle; fill: #0b0b0b" x="370.970156" y="382.545664" transform="rotate(-0 370.970156 382.545664)">自覺疲勞</text>
   </g>
   <g id="text_11">
    <text style="font-size: 10.5px; font-family: 'Microsoft JhengHei', 'Microsoft YaHei', 'DejaVu Sans', 'Bitstream Vera Sans', 'Computer Modern Sans Serif', 'Lucida Grande', 'Verdana', 'Geneva', 'Lucid', 'Arial', 'Helvetica', 'Avant Garde', sans-serif; text-anchor: middle; fill: #0b0b0b" x="562.943565" y="308.224339" transform="rotate(-0 562.943565 308.224339)">第幾次施測</text>
   </g>
   <g id="text_12">
    <text style="font-size: 10.5px; font-family: 'Microsoft JhengHei', 'Microsoft YaHei', 'DejaVu Sans', 'Bitstream Vera Sans', 'Computer Modern Sans Serif', 'Lucida Grande', 'Verdana', 'Geneva', 'Lucid', 'Arial', 'Helvetica', 'Avant Garde', sans-serif; text-anchor: middle; fill: #0b0b0b" x="562.943565" y="192.613389" transform="rotate(-0 562.943565 192.613389)">反應時間 (ms)</text>
   </g>
   <g id="text_13">
    <text style="font-size: 10.5px; font-family: 'Microsoft JhengHei', 'Microsoft YaHei', 'DejaVu Sans', 'Bitstream Vera Sans', 'Computer Modern Sans Serif', 'Lucida Grande', 'Verdana', 'Geneva', 'Lucid', 'Arial', 'Helvetica', 'Avant Garde', sans-serif; text-anchor: middle; fill: #0b0b0b" x="562.943565" y="423.835289" transform="rotate(-0 562.943565 423.835289)">干擾分數 (ms)</text>
   </g>
   <g id="text_14">
    <g id="patch_23">
     <path d="M 251.628295 266.189345 
L 298.338608 266.189345 
L 298.338608 253.638955 
L 251.628295 253.638955 
z
" style="fill: #fcfcfb"/>
    </g>
    <text style="font-weight: 700; font-size: 9.5px; font-family: 'Microsoft JhengHei', 'Microsoft YaHei', 'DejaVu Sans', 'Bitstream Vera Sans', 'Computer Modern Sans Serif', 'Lucida Grande', 'Verdana', 'Geneva', 'Lucid', 'Arial', 'Helvetica', 'Avant Garde', sans-serif; text-anchor: middle; fill: #0b0b0b" x="274.983452" y="262.555595" transform="rotate(-0 274.983452 262.555595)">β = +0.36</text>
   </g>
   <g id="text_15">
    <g id="patch_24">
     <path d="M 445.655337 290.965347 
L 488.258384 290.965347 
L 488.258384 278.410503 
L 445.655337 278.410503 
z
" style="fill: #fcfcfb"/>
    </g>
    <text style="font-size: 9.5px; font-family: 'Microsoft JhengHei', 'Microsoft YaHei', 'DejaVu Sans', 'Bitstream Vera Sans', 'Computer Modern Sans Serif', 'Lucida Grande', 'Verdana', 'Geneva', 'Lucid', 'Arial', 'Helvetica', 'Avant Garde', sans-serif; text-anchor: middle; fill: #52514e" x="466.956861" y="287.322691" transform="rotate(-0 466.956861 287.322691)">β = -0.15</text>
   </g>
   <g id="text_16">
    <g id="patch_25">
     <path d="M 348.216914 171.225434 
L 393.723398 171.225434 
L 393.723398 158.670591 
L 348.216914 158.670591 
z
" style="fill: #fcfcfb"/>
    </g>
    <text style="font-size: 9.5px; font-family: 'Microsoft JhengHei', 'Microsoft YaHei', 'DejaVu Sans', 'Bitstream Vera Sans', 'Computer Modern Sans Serif', 'Lucida Grande', 'Verdana', 'Geneva', 'Lucid', 'Arial', 'Helvetica', 'Avant Garde', sans-serif; text-anchor: middle; fill: #52514e" x="370.970156" y="167.582778" transform="rotate(-0 370.970156 167.582778)">β = +0.12</text>
   </g>
   <g id="text_17">
    <g id="patch_26">
     <path d="M 584.767737 253.802458 
L 628.500393 253.802458 
L 628.500393 241.252067 
L 584.767737 241.252067 
z
" style="fill: #fcfcfb"/>
    </g>
    <text style="font-weight: 700; font-size: 9.5px; font-family: 'Microsoft JhengHei', 'Microsoft YaHei', 'DejaVu Sans', 'Bitstream Vera Sans', 'Computer Modern Sans Serif', 'Lucida Grande', 'Verdana', 'Geneva', 'Lucid', 'Arial', 'Helvetica', 'Avant Garde', sans-serif; text-anchor: middle; fill: #0b0b0b" x="606.634065" y="250.168708" transform="rotate(-0 606.634065 250.168708)">β = -0.17</text>
   </g>
   <g id="text_18">
    <g id="patch_27">
     <path d="M 445.090533 406.57407 
L 488.823189 406.57407 
L 488.823189 394.02368 
L 445.090533 394.02368 
z
" style="fill: #fcfcfb"/>
    </g>
    <text style="font-weight: 700; font-size: 9.5px; font-family: 'Microsoft JhengHei', 'Microsoft YaHei', 'DejaVu Sans', 'Bitstream Vera Sans', 'Computer Modern Sans Serif', 'Lucida Grande', 'Verdana', 'Geneva', 'Lucid', 'Arial', 'Helvetica', 'Avant Garde', sans-serif; text-anchor: middle; fill: #0b0b0b" x="466.956861" y="402.94032" transform="rotate(-0 466.956861 402.94032)">β = -0.25</text>
   </g>
   <g id="text_19">
    <g id="patch_28">
     <path d="M 349.668633 286.836384 
L 392.27168 286.836384 
L 392.27168 274.281541 
L 349.668633 274.281541 
z
" style="fill: #fcfcfb"/>
    </g>
    <text style="font-size: 9.5px; font-family: 'Microsoft JhengHei', 'Microsoft YaHei', 'DejaVu Sans', 'Bitstream Vera Sans', 'Computer Modern Sans Serif', 'Lucida Grande', 'Verdana', 'Geneva', 'Lucid', 'Arial', 'Helvetica', 'Avant Garde', sans-serif; text-anchor: middle; fill: #52514e" x="370.970156" y="283.193728" transform="rotate(-0 370.970156 283.193728)">β = -0.25</text>
   </g>
   <g id="text_20">
    <g id="patch_29">
     <path d="M 349.103828 332.252745 
L 392.836484 332.252745 
L 392.836484 319.702355 
L 349.103828 319.702355 
z
" style="fill: #fcfcfb"/>
    </g>
    <text style="font-weight: 700; font-size: 9.5px; font-family: 'Microsoft JhengHei', 'Microsoft YaHei', 'DejaVu Sans', 'Bitstream Vera Sans', 'Computer Modern Sans Serif', 'Lucida Grande', 'Verdana', 'Geneva', 'Lucid', 'Arial', 'Helvetica', 'Avant Garde', sans-serif; text-anchor: middle; fill: #0b0b0b" x="370.970156" y="328.618995" transform="rotate(-0 370.970156 328.618995)">β = -0.49</text>
   </g>
   <g id="text_21">
    <g id="patch_30">
     <path d="M 584.767737 369.413408 
L 628.500393 369.413408 
L 628.500393 356.863017 
L 584.767737 356.863017 
z
" style="fill: #fcfcfb"/>
    </g>
    <text style="font-weight: 700; font-size: 9.5px; font-family: 'Microsoft JhengHei', 'Microsoft YaHei', 'DejaVu Sans', 'Bitstream Vera Sans', 'Computer Modern Sans Serif', 'Lucida Grande', 'Verdana', 'Geneva', 'Lucid', 'Arial', 'Helvetica', 'Avant Garde', sans-serif; text-anchor: middle; fill: #0b0b0b" x="606.634065" y="365.779658" transform="rotate(-0 606.634065 365.779658)">β = -0.25</text>
   </g>
  </g>
  <g id="axes_2">
   <g id="patch_31">
    <path d="M 770.910651 142.447183 
Q 724.867813 185.592017 770.908942 228.736833 
" clip-path="url(#p7f95d11e5d)" style="fill: none; stroke: #2a78d6; stroke-width: 1.2; stroke-linecap: round"/>
    <path d="M 766.195687 143.850434 
L 770.910651 142.447183 
L 769.204273 147.061105 
z
" clip-path="url(#p7f95d11e5d)" style="fill: #2a78d6; stroke: #2a78d6; stroke-width: 1.2; stroke-linecap: round"/>
    <path d="M 769.202649 224.12288 
L 770.908942 228.736833 
L 766.194004 227.333495 
z
" clip-path="url(#p7f95d11e5d)" style="fill: #2a78d6; stroke: #2a78d6; stroke-width: 1.2; stroke-linecap: round"/>
   </g>
   <g id="patch_32">
    <path d="M 770.898549 142.434129 
Q 674.91215 231.010925 770.897499 319.587717 
" clip-path="url(#p7f95d11e5d)" style="fill: none; stroke: #2a78d6; stroke-width: 1.2; stroke-linecap: round"/>
    <path d="M 766.172998 143.801302 
L 770.898549 142.434129 
L 769.156957 147.034874 
z
" clip-path="url(#p7f95d11e5d)" style="fill: #2a78d6; stroke: #2a78d6; stroke-width: 1.2; stroke-linecap: round"/>
    <path d="M 769.155931 314.986962 
L 770.897499 319.587717 
L 766.171954 318.220518 
z
" clip-path="url(#p7f95d11e5d)" style="fill: #2a78d6; stroke: #2a78d6; stroke-width: 1.2; stroke-linecap: round"/>
   </g>
   <g id="patch_33">
    <path d="M 862.771775 148.584504 
Q 919.652655 160.818439 975.221889 172.770265 
" clip-path="url(#p7f95d11e5d)" style="fill: none; stroke-dasharray: 6,3.6; stroke-dashoffset: 0; stroke: #a9a7a0; stroke-width: 1.2; stroke-linecap: round"/>
    <path d="M 969.637842 168.29607 
L 975.221889 172.770265 
L 968.292105 174.552986 
z
" clip-path="url(#p7f95d11e5d)" style="fill: #a9a7a0; stroke-dasharray: 6,3.6; stroke-dashoffset: 0; stroke: #a9a7a0; stroke-width: 1.2; stroke-linecap: round"/>
   </g>
   <g id="patch_34">
    <path d="M 1015.642202 221.461297 
Q 1015.642202 284.686704 1015.642202 346.57047 
" clip-path="url(#p7f95d11e5d)" style="fill: none; stroke-dasharray: 6,3.6; stroke-dashoffset: 0; stroke: #a9a7a0; stroke-width: 1.2; stroke-linecap: round"/>
    <path d="M 1018.842202 340.17047 
L 1015.642202 346.57047 
L 1012.442202 340.17047 
z
" clip-path="url(#p7f95d11e5d)" style="fill: #a9a7a0; stroke-dasharray: 6,3.6; stroke-dashoffset: 0; stroke: #a9a7a0; stroke-width: 1.2; stroke-linecap: round"/>
   </g>
   <g id="patch_35">
    <path d="M 848.172234 171.795427 
Q 919.657961 264.046293 990.3219 355.236657 
" clip-path="url(#p7f95d11e5d)" style="fill: none; stroke-dasharray: 6,3.6; stroke-dashoffset: 0; stroke: #a9a7a0; stroke-width: 1.2; stroke-linecap: round"/>
    <path d="M 988.931182 348.217689 
L 990.3219 355.236657 
L 983.872295 352.13785 
z
" clip-path="url(#p7f95d11e5d)" style="fill: #a9a7a0; stroke-dasharray: 6,3.6; stroke-dashoffset: 0; stroke: #a9a7a0; stroke-width: 1.2; stroke-linecap: round"/>
   </g>
   <g id="patch_36">
    <path d="M 1052.384183 372.107063 
Q 1111.627513 346.622962 1169.63839 321.669013 
" clip-path="url(#p7f95d11e5d)" style="fill: none; stroke-dasharray: 6,3.6; stroke-dashoffset: 0; stroke: #a9a7a0; stroke-width: 1.2; stroke-linecap: round"/>
    <path d="M 1162.494763 321.258412 
L 1169.63839 321.669013 
L 1165.023733 327.137554 
z
" clip-path="url(#p7f95d11e5d)" style="fill: #a9a7a0; stroke-dasharray: 6,3.6; stroke-dashoffset: 0; stroke: #a9a7a0; stroke-width: 1.2; stroke-linecap: round"/>
   </g>
   <g id="patch_37">
    <path d="M 1049.25571 203.152634 
Q 1111.630943 243.399614 1172.878841 282.919193 
" clip-path="url(#p7f95d11e5d)" style="fill: none; stroke-dasharray: 6,3.6; stroke-dashoffset: 0; stroke: #a9a7a0; stroke-width: 1.2; stroke-linecap: round"/>
    <path d="M 1169.23609 276.76043 
L 1172.878841 282.919193 
L 1165.76618 282.138136 
z
" clip-path="url(#p7f95d11e5d)" style="fill: #a9a7a0; stroke-dasharray: 6,3.6; stroke-dashoffset: 0; stroke: #a9a7a0; stroke-width: 1.2; stroke-linecap: round"/>
   </g>
   <g id="patch_38">
    <path d="M 860.410774 155.979162 
Q 1015.641312 222.753105 1169.639397 288.996896 
" clip-path="url(#p7f95d11e5d)" style="fill: none; stroke-dasharray: 6,3.6; stroke-dashoffset: 0; stroke: #a9a7a0; stroke-width: 1.2; stroke-linecap: round"/>
    <path d="M 1165.02474 283.528354 
L 1169.639397 288.996896 
L 1162.49577 289.407496 
z
" clip-path="url(#p7f95d11e5d)" style="fill: #a9a7a0; stroke-dasharray: 6,3.6; stroke-dashoffset: 0; stroke: #a9a7a0; stroke-width: 1.2; stroke-linecap: round"/>
   </g>
   <g id="patch_39">
    <path d="M 778.654338 159.993258 
L 868.683247 159.993258 
Q 876.626974 159.993258 876.626974 155.038503 
L 876.626974 125.309973 
Q 876.626974 120.355218 868.683247 120.355218 
L 778.654338 120.355218 
Q 770.710611 120.355218 770.710611 125.309973 
L 770.710611 155.038503 
Q 770.710611 159.993258 778.654338 159.993258 
z
" clip-path="url(#p7f95d11e5d)" style="fill: #fcfcfb; stroke: #52514e; stroke-width: 1.3; stroke-linejoin: miter"/>
   </g>
   <g id="patch_40">
    <path d="M 778.654338 250.830433 
L 868.683247 250.830433 
Q 876.626974 250.830433 876.626974 245.875678 
L 876.626974 216.147148 
Q 876.626974 211.192393 868.683247 211.192393 
L 778.654338 211.192393 
Q 770.710611 211.192393 770.710611 216.147148 
L 770.710611 245.875678 
Q 770.710611 250.830433 778.654338 250.830433 
z
" clip-path="url(#p7f95d11e5d)" style="fill: #fcfcfb; stroke: #52514e; stroke-width: 1.3; stroke-linejoin: miter"/>
   </g>
   <g id="patch_41">
    <path d="M 778.654338 341.667608 
L 868.683247 341.667608 
Q 876.626974 341.667608 876.626974 336.712853 
L 876.626974 306.984323 
Q 876.626974 302.029568 868.683247 302.029568 
L 778.654338 302.029568 
Q 770.710611 302.029568 770.710611 306.984323 
L 770.710611 336.712853 
Q 770.710611 341.667608 778.654338 341.667608 
z
" clip-path="url(#p7f95d11e5d)" style="fill: #fcfcfb; stroke: #52514e; stroke-width: 1.3; stroke-linejoin: miter"/>
   </g>
   <g id="patch_42">
    <path d="M 778.654338 432.504783 
L 868.683247 432.504783 
Q 876.626974 432.504783 876.626974 427.550028 
L 876.626974 397.821498 
Q 876.626974 392.866743 868.683247 392.866743 
L 778.654338 392.866743 
Q 770.710611 392.866743 770.710611 397.821498 
L 770.710611 427.550028 
Q 770.710611 432.504783 778.654338 432.504783 
z
" clip-path="url(#p7f95d11e5d)" style="fill: #fcfcfb; stroke: #52514e; stroke-width: 1.3; stroke-linejoin: miter"/>
   </g>
   <g id="patch_43">
    <path d="M 778.654338 523.341958 
L 868.683247 523.341958 
Q 876.626974 523.341958 876.626974 518.387203 
L 876.626974 488.658673 
Q 876.626974 483.703918 868.683247 483.703918 
L 778.654338 483.703918 
Q 770.710611 483.703918 770.710611 488.658673 
L 770.710611 518.387203 
Q 770.710611 523.341958 778.654338 523.341958 
z
" clip-path="url(#p7f95d11e5d)" style="fill: #fcfcfb; stroke: #52514e; stroke-width: 1.3; stroke-linejoin: miter"/>
   </g>
   <g id="patch_44">
    <path d="M 970.627747 201.282883 
L 1060.656656 201.282883 
Q 1068.600384 201.282883 1068.600384 196.328128 
L 1068.600384 166.599598 
Q 1068.600384 161.644843 1060.656656 161.644843 
L 970.627747 161.644843 
Q 962.68402 161.644843 962.68402 166.599598 
L 962.68402 196.328128 
Q 962.68402 201.282883 970.627747 201.282883 
z
" clip-path="url(#p7f95d11e5d)" style="fill: #fcfcfb; stroke: #0b0b0b; stroke-width: 2; stroke-linejoin: miter"/>
   </g>
   <g id="patch_45">
    <path d="M 970.627747 407.731008 
L 1060.656656 407.731008 
Q 1068.600384 407.731008 1068.600384 402.776253 
L 1068.600384 373.047723 
Q 1068.600384 368.092968 1060.656656 368.092968 
L 970.627747 368.092968 
Q 962.68402 368.092968 962.68402 373.047723 
L 962.68402 402.776253 
Q 962.68402 407.731008 970.627747 407.731008 
z
" clip-path="url(#p7f95d11e5d)" style="fill: #fcfcfb; stroke: #0b0b0b; stroke-width: 2; stroke-linejoin: miter"/>
   </g>
   <g id="patch_46">
    <path d="M 1162.601156 193.024958 
L 1252.630065 193.024958 
Q 1260.573793 193.024958 1260.573793 188.070203 
L 1260.573793 158.341673 
Q 1260.573793 153.386918 1252.630065 153.386918 
L 1162.601156 153.386918 
Q 1154.657429 153.386918 1154.657429 158.341673 
L 1154.657429 188.070203 
Q 1154.657429 193.024958 1162.601156 193.024958 
z
" clip-path="url(#p7f95d11e5d)" style="fill: #fcfcfb; stroke: #52514e; stroke-width: 1.3; stroke-linejoin: miter"/>
   </g>
   <g id="patch_47">
    <path d="M 1162.601156 325.151758 
L 1252.630065 325.151758 
Q 1260.573793 325.151758 1260.573793 320.197003 
L 1260.573793 290.468473 
Q 1260.573793 285.513718 1252.630065 285.513718 
L 1162.601156 285.513718 
Q 1154.657429 285.513718 1154.657429 290.468473 
L 1154.657429 320.197003 
Q 1154.657429 325.151758 1162.601156 325.151758 
z
" clip-path="url(#p7f95d11e5d)" style="fill: #fcfcfb; stroke: #52514e; stroke-width: 1.3; stroke-linejoin: miter"/>
   </g>
   <g id="text_22">
    <g id="patch_48">
     <path d="M 691.38167 190.848684 
L 728.553077 190.848684 
L 728.553077 180.336966 
L 691.38167 180.336966 
z
" style="fill: #fcfcfb"/>
    </g>
    <text style="font-size: 9px; font-family: 'Microsoft JhengHei', 'Microsoft YaHei', 'DejaVu Sans', 'Bitstream Vera Sans', 'Computer Modern Sans Serif', 'Lucida Grande', 'Verdana', 'Geneva', 'Lucid', 'Arial', 'Helvetica', 'Avant Garde', sans-serif; text-anchor: end; fill: #2a78d6" x="728.013077" y="188.071341" transform="rotate(-0 728.013077 188.071341)">r = -0.80</text>
   </g>
   <g id="text_23">
    <g id="patch_49">
     <path d="M 651.332045 236.267272 
L 688.503452 236.267272 
L 688.503452 225.755553 
L 651.332045 225.755553 
z
" style="fill: #fcfcfb"/>
    </g>
    <text style="font-size: 9px; font-family: 'Microsoft JhengHei', 'Microsoft YaHei', 'DejaVu Sans', 'Bitstream Vera Sans', 'Computer Modern Sans Serif', 'Lucida Grande', 'Verdana', 'Geneva', 'Lucid', 'Arial', 'Helvetica', 'Avant Garde', sans-serif; text-anchor: end; fill: #2a78d6" x="687.963452" y="233.489928" transform="rotate(-0 687.963452 233.489928)">r = -0.52</text>
   </g>
   <g id="text_24">
    <text style="font-size: 9px; font-family: 'Microsoft JhengHei', 'Microsoft YaHei', 'DejaVu Sans', 'Bitstream Vera Sans', 'Computer Modern Sans Serif', 'Lucida Grande', 'Verdana', 'Geneva', 'Lucid', 'Arial', 'Helvetica', 'Avant Garde', sans-serif; text-anchor: middle; fill: #52514e" x="1015.642202" y="540.6836" transform="rotate(-0 1015.642202 540.6836)">另有 5 條控制路徑不顯著、未畫出（見 path_coefficients.csv）</text>
   </g>
   <g id="text_25">
    <text style="font-size: 11px; font-family: 'Microsoft JhengHei', 'Microsoft YaHei', 'DejaVu Sans', 'Bitstream Vera Sans', 'Computer Modern Sans Serif', 'Lucida Grande', 'Verdana', 'Geneva', 'Lucid', 'Arial', 'Helvetica', 'Avant Garde', sans-serif; fill: #0b0b0b" transform="translate(821.710859 15.993125)">模型 B：CO₂ → 施測前心率 → 疲勞 → 反應時間（子樣本）</text>
    <text style="font-size: 11px; font-family: 'Microsoft JhengHei', 'Microsoft YaHei', 'DejaVu Sans', 'Bitstream Vera Sans', 'Computer Modern Sans Serif', 'Lucida Grande', 'Verdana', 'Geneva', 'Lucid', 'Arial', 'Helvetica', 'Avant Garde', sans-serif; fill: #0b0b0b" transform="translate(821.44875 29.619719)">n = 20 人次、7 人；Fisher's C = 6.1（df = 10，p = 0.81）</text>
    <text style="font-size: 11px; font-family: 'Microsoft JhengHei', 'Microsoft YaHei', 'DejaVu Sans', 'Bitstream Vera Sans', 'Computer Modern Sans Serif', 'Lucida Grande', 'Verdana', 'Geneva', 'Lucid', 'Arial', 'Helvetica', 'Avant Garde', sans-serif; fill: #0b0b0b" transform="translate(833.719766 43.337063)">⚠ 樣本太小，標準化 β &gt; 1 代表共線性，係數不可解讀</text>
   </g>
   <g id="text_26">
    <text style="font-size: 10.5px; font-family: 'Microsoft JhengHei', 'Microsoft YaHei', 'DejaVu Sans', 'Bitstream Vera Sans', 'Computer Modern Sans Serif', 'Lucida Grande', 'Verdana', 'Geneva', 'Lucid', 'Arial', 'Helvetica', 'Avant Garde', sans-serif; text-anchor: middle; fill: #0b0b0b" x="823.668793" y="143.242206" transform="rotate(-0 823.668793 143.242206)">CO₂（每100 ppm）</text>
   </g>
   <g id="text_27">
    <text style="font-size: 10.5px; font-family: 'Microsoft JhengHei', 'Microsoft YaHei', 'DejaVu Sans', 'Bitstream Vera Sans', 'Computer Modern Sans Serif', 'Lucida Grande', 'Verdana', 'Geneva', 'Lucid', 'Arial', 'Helvetica', 'Avant Garde', sans-serif; text-anchor: middle; fill: #0b0b0b" x="823.668793" y="233.903014" transform="rotate(-0 823.668793 233.903014)">溫度 (°C)</text>
   </g>
   <g id="text_28">
    <text style="font-size: 10.5px; font-family: 'Microsoft JhengHei', 'Microsoft YaHei', 'DejaVu Sans', 'Bitstream Vera Sans', 'Computer Modern Sans Serif', 'Lucida Grande', 'Verdana', 'Geneva', 'Lucid', 'Arial', 'Helvetica', 'Avant Garde', sans-serif; text-anchor: middle; fill: #0b0b0b" x="823.668793" y="324.740189" transform="rotate(-0 823.668793 324.740189)">濕度 (%)</text>
   </g>
   <g id="text_29">
    <text style="font-size: 10.5px; font-family: 'Microsoft JhengHei', 'Microsoft YaHei', 'DejaVu Sans', 'Bitstream Vera Sans', 'Computer Modern Sans Serif', 'Lucida Grande', 'Verdana', 'Geneva', 'Lucid', 'Arial', 'Helvetica', 'Avant Garde', sans-serif; text-anchor: middle; fill: #0b0b0b" x="823.668793" y="415.577364" transform="rotate(-0 823.668793 415.577364)">睡眠時數</text>
   </g>
   <g id="text_30">
    <text style="font-size: 10.5px; font-family: 'Microsoft JhengHei', 'Microsoft YaHei', 'DejaVu Sans', 'Bitstream Vera Sans', 'Computer Modern Sans Serif', 'Lucida Grande', 'Verdana', 'Geneva', 'Lucid', 'Arial', 'Helvetica', 'Avant Garde', sans-serif; text-anchor: middle; fill: #0b0b0b" x="823.668793" y="506.414539" transform="rotate(-0 823.668793 506.414539)">睡眠品質</text>
   </g>
   <g id="text_31">
    <text style="font-weight: 700; font-size: 10.5px; font-family: 'Microsoft JhengHei', 'Microsoft YaHei', 'DejaVu Sans', 'Bitstream Vera Sans', 'Computer Modern Sans Serif', 'Lucida Grande', 'Verdana', 'Geneva', 'Lucid', 'Arial', 'Helvetica', 'Avant Garde', sans-serif; text-anchor: middle; fill: #0b0b0b" x="1015.642202" y="184.355464" transform="rotate(-0 1015.642202 184.355464)">施測前心率</text>
   </g>
   <g id="text_32">
    <text style="font-weight: 700; font-size: 10.5px; font-family: 'Microsoft JhengHei', 'Microsoft YaHei', 'DejaVu Sans', 'Bitstream Vera Sans', 'Computer Modern Sans Serif', 'Lucida Grande', 'Verdana', 'Geneva', 'Lucid', 'Arial', 'Helvetica', 'Avant Garde', sans-serif; text-anchor: middle; fill: #0b0b0b" x="1015.642202" y="390.803589" transform="rotate(-0 1015.642202 390.803589)">自覺疲勞</text>
   </g>
   <g id="text_33">
    <text style="font-size: 10.5px; font-family: 'Microsoft JhengHei', 'Microsoft YaHei', 'DejaVu Sans', 'Bitstream Vera Sans', 'Computer Modern Sans Serif', 'Lucida Grande', 'Verdana', 'Geneva', 'Lucid', 'Arial', 'Helvetica', 'Avant Garde', sans-serif; text-anchor: middle; fill: #0b0b0b" x="1207.615611" y="176.097539" transform="rotate(-0 1207.615611 176.097539)">第幾次施測</text>
   </g>
   <g id="text_34">
    <text style="font-size: 10.5px; font-family: 'Microsoft JhengHei', 'Microsoft YaHei', 'DejaVu Sans', 'Bitstream Vera Sans', 'Computer Modern Sans Serif', 'Lucida Grande', 'Verdana', 'Geneva', 'Lucid', 'Arial', 'Helvetica', 'Avant Garde', sans-serif; text-anchor: middle; fill: #0b0b0b" x="1207.615611" y="308.224339" transform="rotate(-0 1207.615611 308.224339)">反應時間 (ms)</text>
   </g>
   <g id="text_35">
    <g id="patch_50">
     <path d="M 896.902255 167.096472 
L 942.408739 167.096472 
L 942.408739 154.541628 
L 896.902255 154.541628 
z
" style="fill: #fcfcfb"/>
    </g>
    <text style="font-size: 9.5px; font-family: 'Microsoft JhengHei', 'Microsoft YaHei', 'DejaVu Sans', 'Bitstream Vera Sans', 'Computer Modern Sans Serif', 'Lucida Grande', 'Verdana', 'Geneva', 'Lucid', 'Arial', 'Helvetica', 'Avant Garde', sans-serif; text-anchor: middle; fill: #52514e" x="919.655497" y="163.453816" transform="rotate(-0 919.655497 163.453816)">β = +1.64</text>
   </g>
   <g id="text_36">
    <g id="patch_51">
     <path d="M 1038.031178 290.965347 
L 1080.634225 290.965347 
L 1080.634225 278.410503 
L 1038.031178 278.410503 
z
" style="fill: #fcfcfb"/>
    </g>
    <text style="font-size: 9.5px; font-family: 'Microsoft JhengHei', 'Microsoft YaHei', 'DejaVu Sans', 'Bitstream Vera Sans', 'Computer Modern Sans Serif', 'Lucida Grande', 'Verdana', 'Geneva', 'Lucid', 'Arial', 'Helvetica', 'Avant Garde', sans-serif; text-anchor: middle; fill: #52514e" x="1059.332702" y="287.322691" transform="rotate(-0 1059.332702 287.322691)">β = -0.36</text>
   </g>
   <g id="text_37">
    <g id="patch_52">
     <path d="M 898.353974 270.320534 
L 940.957021 270.320534 
L 940.957021 257.765691 
L 898.353974 257.765691 
z
" style="fill: #fcfcfb"/>
    </g>
    <text style="font-size: 9.5px; font-family: 'Microsoft JhengHei', 'Microsoft YaHei', 'DejaVu Sans', 'Bitstream Vera Sans', 'Computer Modern Sans Serif', 'Lucida Grande', 'Verdana', 'Geneva', 'Lucid', 'Arial', 'Helvetica', 'Avant Garde', sans-serif; text-anchor: middle; fill: #52514e" x="919.655497" y="266.677878" transform="rotate(-0 919.655497 266.677878)">β = -0.10</text>
   </g>
   <g id="text_38">
    <g id="patch_53">
     <path d="M 1090.327383 352.899784 
L 1132.93043 352.899784 
L 1132.93043 340.344941 
L 1090.327383 340.344941 
z
" style="fill: #fcfcfb"/>
    </g>
    <text style="font-size: 9.5px; font-family: 'Microsoft JhengHei', 'Microsoft YaHei', 'DejaVu Sans', 'Bitstream Vera Sans', 'Computer Modern Sans Serif', 'Lucida Grande', 'Verdana', 'Geneva', 'Lucid', 'Arial', 'Helvetica', 'Avant Garde', sans-serif; text-anchor: middle; fill: #52514e" x="1111.628906" y="349.257128" transform="rotate(-0 1111.628906 349.257128)">β = -0.17</text>
   </g>
   <g id="text_39">
    <g id="patch_54">
     <path d="M 1090.327383 249.675722 
L 1132.93043 249.675722 
L 1132.93043 237.120878 
L 1090.327383 237.120878 
z
" style="fill: #fcfcfb"/>
    </g>
    <text style="font-size: 9.5px; font-family: 'Microsoft JhengHei', 'Microsoft YaHei', 'DejaVu Sans', 'Bitstream Vera Sans', 'Computer Modern Sans Serif', 'Lucida Grande', 'Verdana', 'Geneva', 'Lucid', 'Arial', 'Helvetica', 'Avant Garde', sans-serif; text-anchor: middle; fill: #52514e" x="1111.628906" y="246.033066" transform="rotate(-0 1111.628906 246.033066)">β = -0.32</text>
   </g>
   <g id="text_40">
    <g id="patch_55">
     <path d="M 994.340678 229.030909 
L 1036.943725 229.030909 
L 1036.943725 216.476066 
L 994.340678 216.476066 
z
" style="fill: #fcfcfb"/>
    </g>
    <text style="font-size: 9.5px; font-family: 'Microsoft JhengHei', 'Microsoft YaHei', 'DejaVu Sans', 'Bitstream Vera Sans', 'Computer Modern Sans Serif', 'Lucida Grande', 'Verdana', 'Geneva', 'Lucid', 'Arial', 'Helvetica', 'Avant Garde', sans-serif; text-anchor: middle; fill: #52514e" x="1015.642202" y="225.388253" transform="rotate(-0 1015.642202 225.388253)">β = -0.00</text>
   </g>
  </g>
  <g id="text_41">
   <text style="font-size: 9.5px; font-family: 'Microsoft JhengHei', 'Microsoft YaHei', 'DejaVu Sans', 'Bitstream Vera Sans', 'Computer Modern Sans Serif', 'Lucida Grande', 'Verdana', 'Geneva', 'Lucid', 'Arial', 'Helvetica', 'Avant Garde', sans-serif; text-anchor: middle; fill: #52514e" x="636.613338" y="570.012563" transform="rotate(-0 636.613338 570.012563)">β = 標準化係數。粗黑實線：以學生為單位 bootstrap 95% CI 不含 0；灰虛線：含 0。藍色雙箭頭：外生變項間的相關。Fisher's C 的 p &gt; .05 表示未畫的路徑與資料不衝突。</text>
  </g>
 </g>
 <defs>
  <clipPath id="p408e5293d5">
   <rect x="13.502429" y="49.337063" width="615.638864" height="495.4755"/>
  </clipPath>
  <clipPath id="p7f95d11e5d">
   <rect x="658.174474" y="49.337063" width="615.638864" height="495.4755"/>
  </clipPath>
 </defs>
</svg>
